<?xml version="1.0" standalone="no"?>
<!DOCTYPE svg PUBLIC "-//W3C//DTD SVG 20010904//EN"
 "http://www.w3.org/TR/2001/REC-SVG-20010904/DTD/svg10.dtd">
<svg version="1.0" xmlns="http://www.w3.org/2000/svg"
 width="799.000000pt" height="799.000000pt" viewBox="0 0 799.000000 799.000000"
 preserveAspectRatio="xMidYMid meet">
<metadata>
Created by potrace 1.11, written by Peter Selinger 2001-2013
</metadata>
<g transform="translate(0.000000,799.000000) scale(0.100000,-0.100000)"
fill="#000000" stroke="none">
<path d="M3740 7619 c-63 -4 -128 -9 -145 -12 -33 -6 -104 -17 -215 -32 -99
-14 -333 -70 -470 -112 -170 -52 -443 -166 -622 -261 -132 -70 -381 -220 -414
-250 -10 -9 -73 -60 -139 -113 -66 -53 -138 -112 -160 -132 -22 -20 -70 -62
-106 -94 -36 -32 -82 -78 -102 -103 -21 -25 -56 -65 -78 -90 -105 -115 -283
-348 -355 -465 -231 -374 -416 -819 -480 -1155 -3 -13 -12 -56 -20 -95 -18
-81 -20 -92 -29 -165 -4 -30 -9 -66 -11 -80 -2 -14 -7 -54 -12 -90 -21 -151
-22 -631 -1 -740 4 -25 11 -67 13 -95 66 -634 385 -1369 809 -1865 165 -192
242 -272 362 -375 39 -33 72 -62 75 -66 3 -3 63 -51 134 -108 108 -85 197
-147 311 -214 11 -7 32 -20 46 -29 59 -39 310 -163 450 -223 158 -68 377 -141
519 -174 142 -32 283 -60 340 -67 30 -3 91 -12 135 -19 162 -25 664 -26 790
-1 11 2 43 7 70 10 261 34 562 107 805 194 231 83 544 244 785 401 22 14 105
78 185 142 151 121 168 135 237 200 26 24 47 37 57 33 9 -3 13 -11 9 -17 -4
-6 0 -8 10 -4 9 3 18 0 21 -9 3 -9 10 -13 15 -10 5 3 12 -1 15 -10 3 -8 10
-12 16 -9 5 3 10 1 10 -4 0 -6 7 -11 15 -11 8 0 15 -5 15 -12 0 -6 3 -9 6 -5
3 3 17 -6 29 -19 13 -14 27 -26 32 -26 15 -1 53 -21 53 -28 0 -4 6 -7 13 -7
21 -1 42 -8 48 -16 3 -4 15 -9 27 -12 11 -2 41 -15 65 -29 25 -13 48 -22 52
-18 3 4 10 0 15 -8 8 -12 10 -12 10 -1 0 9 4 10 13 4 6 -6 22 -9 35 -8 12 1
22 -3 22 -8 0 -5 7 -7 15 -4 8 4 17 2 20 -3 3 -5 19 -7 35 -5 17 2 28 0 25 -4
-2 -5 6 -11 20 -13 15 -3 25 -1 25 6 0 7 3 7 8 1 4 -5 24 -10 45 -10 20 0 37
5 37 10 0 6 5 3 10 -5 6 -9 10 -10 10 -3 0 8 9 9 32 2 41 -11 41 -11 32 2 -5
8 -1 8 14 0 17 -9 23 -8 31 6 6 10 11 13 11 7 0 -13 81 4 91 20 4 4 18 8 33 9
30 0 51 20 42 42 -4 11 -2 14 6 9 7 -5 9 -2 5 8 -3 9 0 21 6 28 9 10 9 11 0 6
-9 -5 -11 2 -8 26 14 93 15 119 5 113 -7 -4 -6 1 1 13 11 17 10 24 -2 38 -8
10 -9 15 -3 11 7 -4 14 3 17 18 2 14 0 28 -6 32 -6 4 -7 1 -2 -7 5 -9 4 -11
-4 -6 -7 5 -9 12 -3 19 5 7 10 19 10 27 1 8 3 27 5 43 2 15 1 30 -3 32 -4 3
-6 21 -3 41 4 29 2 35 -9 28 -11 -6 -10 -5 1 9 10 13 10 17 1 17 -9 0 -9 4 1
17 8 9 9 14 3 10 -7 -4 -11 9 -10 38 0 28 4 41 10 37 6 -3 5 2 -3 11 -10 13
-11 20 -2 31 10 11 8 17 -6 25 -10 6 -13 11 -7 11 19 0 24 28 8 45 -14 13 -14
15 3 16 10 0 13 3 5 6 -6 2 -10 9 -6 14 3 5 0 9 -5 9 -6 0 -10 3 -10 8 1 4 -2
21 -6 39 -6 25 -14 33 -37 38 -18 4 -35 2 -45 -7 -14 -11 -16 -11 -9 1 7 10 3
11 -15 5 -13 -4 -29 -7 -36 -7 -7 0 -10 -5 -6 -10 3 -5 -11 -7 -36 -3 -30 4
-40 2 -35 -6 5 -7 3 -8 -5 -4 -22 14 -92 16 -84 3 4 -7 -2 -5 -12 3 -14 12
-19 12 -23 2 -3 -9 -7 -10 -17 -2 -7 6 -17 10 -21 8 -5 -1 -20 4 -33 11 -14 8
-21 9 -17 2 10 -15 -7 -14 -22 1 -7 7 -12 8 -12 3 0 -6 -4 -4 -9 4 -5 7 -20
13 -34 14 -30 0 -28 9 19 83 41 65 177 328 211 408 14 34 31 75 38 91 36 79
83 203 90 235 1 8 17 60 34 115 29 97 85 338 96 420 3 22 8 51 10 65 3 14 8
48 11 75 3 28 7 61 10 75 18 125 25 576 11 700 -6 53 -33 249 -43 320 -14 88
-77 348 -115 470 -111 362 -353 830 -566 1097 -43 54 -80 100 -83 103 -3 3
-21 25 -41 50 -21 25 -51 61 -69 80 -17 19 -50 57 -73 84 -23 26 -94 94 -157
150 -63 55 -117 103 -120 107 -3 3 -43 35 -90 73 -47 37 -92 73 -101 80 -33
27 -128 96 -133 96 -2 0 -46 26 -97 59 -121 75 -335 186 -483 251 -136 59
-167 72 -181 75 -5 2 -75 23 -155 49 -183 58 -416 111 -570 131 -25 3 -56 8
-70 10 -14 3 -45 7 -70 10 -25 3 -56 7 -70 10 -42 9 -448 12 -570 4z"/>
</g>
</svg>
